<?xml version="1.0" encoding="UTF-8"?><svg id="Calque_1" xmlns="http://www.w3.org/2000/svg" viewBox="0 0 16 16"><defs><style>.cls-1{fill:#b8721d;}.cls-2{fill:#f2eae6;}</style></defs><path class="cls-2" d="m7.2,15.31c-.26,0-.52,0-.78,0-.45.01-.89-.06-1.31-.19-.26-.08-.53-.17-.78-.29-.28-.14-.54-.31-.8-.49-.24-.16-.46-.34-.65-.55-.65-.72-1.11-1.53-1.3-2.49-.26-1.33-.01-2.57.72-3.71.28-.43.62-.82,1.03-1.14.04-.03.06-.07.09-.11-.04,0-.08-.02-.13-.02-.41.01-.81.03-1.22.03-.26,0-.51.08-.76.14-.28.07-.53.2-.78.33-.1.05-.14.04-.21-.03-.08-.08-.08-.18.01-.24.09-.07.19-.13.29-.18.65-.32,1.21-.75,1.68-1.3.25-.29.47-.62.7-.93.31-.43.62-.86.92-1.3.1-.14.19-.29.28-.44.12-.17.26-.32.44-.4.13-.06.27-.1.41-.12.28-.04.55.03.82.09.13.03.27.05.4.07.13.02.18.08.18.21,0,.06-.02.11-.08.13-.47.19-.68.59-.78,1.05-.05.24-.06.48-.09.72-.03.23-.06.45-.1.68-.03.17-.1.33-.19.48-.01.02-.03.04-.04.06-.03.07,0,.1.07.09.13-.02.27-.05.4-.06.23-.03.46-.06.69-.07.19-.01.38,0,.57,0,.34,0,.66-.07.95-.24.52-.31.89-.74,1.1-1.31.18-.49.35-.99.53-1.48.03-.09.04-.15-.04-.23-.14-.14-.24-.31-.23-.52,0-.28.14-.48.39-.6.24-.11.46-.07.66.09.05.04.11.08.14.14.05.08.13.1.21.1.17,0,.34,0,.51,0,.43.02.85.04,1.28.06.16,0,.33,0,.49.03.33.05.66.1.98.17.42.09.85.18,1.26.32.32.11.5.32.57.65.13.61.06,1.19-.19,1.76-.1.22-.27.4-.44.58-.09.1-.19.19-.29.28-.19.16-.41.25-.67.24-.27-.01-.52.02-.77.12-.26.1-.42.31-.42.59-.01.5,0,1.01-.02,1.51-.02.59-.13,1.16-.32,1.72-.14.41-.28.81-.46,1.2-.16.34-.32.69-.47,1.03-.21.47-.43.94-.51,1.46-.08.53,0,1.02.36,1.43.25.29.1.68-.13.79-.07.03-.15.05-.22.05-.42,0-.83.01-1.25,0-.29-.01-.51-.18-.7-.39-.09-.1-.16-.23-.24-.34-.24-.34-.47-.68-.71-1.02-.25-.35-.6-.51-1.02-.51-.02,0-.04,0-.06,0-.16,0-.17,0-.15.16.04.3.19.54.47.68.07.03.15.06.22.07.37.07.66.23.82.58.08.17.09.35.07.53-.01.12-.17.24-.31.24-.12,0-.24,0-.36,0-.25,0-.49,0-.74,0h0Zm-.17-.43h0c.36,0,.72,0,1.07,0,.08,0,.1-.02.08-.1,0-.03-.02-.06-.03-.09-.08-.15-.2-.25-.36-.29-.11-.02-.22-.04-.32-.08-.44-.13-.82-.65-.84-1.13-.02-.29-.01-.58-.01-.87,0-.25-.02-.49-.11-.71-.32-.78-.89-1.23-1.73-1.3-.05,0-.1,0-.14-.01-.14-.03-.2-.18-.12-.31.05-.08.12-.12.22-.11.06,0,.12,0,.18.01.27.03.53.11.77.23.6.29,1.01.75,1.23,1.38.1.28.14.57.13.87,0,.1.01.11.1.1.51-.01.94.18,1.27.56.19.21.34.46.5.7.18.27.36.55.54.81.14.2.33.35.6.33.16,0,.22.02.11-.19-.15-.31-.27-.64-.29-.99-.02-.28-.01-.55.05-.82.11-.44.3-.85.58-1.21.24-.3.49-.59.75-.88.32-.36.6-.75.8-1.2.3-.63.45-1.29.45-1.99,0-.6,0-1.21.02-1.81.01-.35.2-.6.52-.73.14-.06.3-.07.45-.07.25,0,.51,0,.76,0,.04,0,.08-.02.13-.04-.02-.04-.03-.08-.06-.11-.04-.05-.1-.1-.15-.15-.05-.05-.05-.11-.02-.16.03-.06.08-.07.14-.07.05,0,.1.02.15.03.2.04.38,0,.53-.15.11-.11.19-.24.24-.38.15-.45.15-.91.08-1.37-.03-.17-.13-.27-.28-.31-.35-.1-.7-.19-1.06-.26-.4-.08-.8-.14-1.2-.19-.38-.05-.76-.08-1.14-.09-.36-.02-.72,0-1.08,0-.13,0-.23-.04-.31-.14-.06-.07-.13-.14-.2-.21-.11-.11-.25-.04-.33.04-.09.08-.09.23-.02.32.07.08.14.16.21.23.07.08.09.16.06.26-.05.15-.09.31-.14.46-.13.38-.28.76-.4,1.15-.08.26-.17.51-.31.75-.21.38-.51.68-.89.88-.38.2-.78.32-1.22.31-.23,0-.45,0-.68,0-.21,0-.43,0-.64.05-.33.07-.67.16-.98.3-.44.19-.84.44-1.2.75-.5.43-.89.95-1.17,1.55-.24.52-.38,1.07-.41,1.64-.03.45.01.89.12,1.32.17.69.48,1.31.93,1.85.4.48.88.87,1.45,1.15.6.31,1.24.48,1.92.47.24,0,.48,0,.72,0ZM2.86,5.98s0,0,0,.01c.16,0,.31,0,.47,0,.38-.02.75-.08,1.08-.29.31-.2.55-.46.66-.83.1-.34.11-.7.14-1.05.05-.53.16-1.04.55-1.44.06-.06.05-.08-.04-.1-.13-.02-.27-.04-.4-.06-.2-.04-.37.02-.53.11-.16.09-.27.24-.38.38-.04.06-.04.1-.02.17.05.16.11.32.13.48.08.78-.22,1.39-.85,1.84-.18.13-.38.21-.58.3-.24.1-.49.17-.75.22-.08.02-.16.05-.24.09-.06.03-.12.08-.17.13-.02.02-.04.05-.06.08.03,0,.06,0,.09,0,.3-.02.6-.03.9-.05Zm7.38,7.48c.02.14.02.28.05.42.06.32.19.6.41.83.12.12.27.17.44.15.09,0,.11-.04.07-.12-.03-.06-.06-.11-.09-.16-.08-.15-.18-.3-.24-.46-.21-.52-.17-1.04-.03-1.57.05-.18.1-.36.15-.54,0-.02,0-.04,0-.06-.02,0-.04,0-.05.02-.06.06-.14.12-.19.19-.1.15-.18.32-.27.48-.14.25-.23.51-.23.8ZM4.2,3.5c0-.06,0-.15-.02-.25,0-.07-.03-.08-.07-.03-.06.07-.12.14-.17.21-.12.17-.22.34-.34.51-.32.43-.6.89-.96,1.3-.02.02-.02.05-.03.07.03,0,.05,0,.08,0,.02,0,.03,0,.05-.02.29-.11.56-.24.8-.43.44-.33.67-.77.66-1.37Z"/><path class="cls-1" d="m7.44,2.36c-.08,0-.15,0-.23,0-.1,0-.08-.07-.1-.13-.02-.06.02-.1.07-.1.18,0,.36,0,.54,0,.06,0,.08.05.07.11,0,.05-.01.12-.09.11-.09,0-.17,0-.26,0h0Z"/><path class="cls-1" d="m7.35,2.91c0,.09-.04.12-.11.11-.03,0-.07-.03-.09-.05-.09-.09-.18-.18-.26-.28-.03-.04-.08-.1-.03-.15.05-.04.12-.04.16,0,.1.09.2.19.3.29.02.02.02.06.03.08Z"/><path class="cls-1" d="m6.95,1.96c-.11,0-.13-.03-.1-.11,0-.03.03-.07.05-.09.08-.09.17-.17.25-.26.02-.02.04-.03.06-.03.04,0,.1,0,.12.02.02.02.02.09,0,.12-.1.12-.2.22-.31.33-.02.02-.06.02-.07.02Z"/><path class="cls-1" d="m7.03,14.87c-.24,0-.48,0-.72,0-.68,0-1.32-.17-1.92-.47-.56-.29-1.04-.67-1.45-1.15-.45-.55-.76-1.16-.93-1.85-.1-.44-.14-.88-.12-1.32.03-.57.17-1.12.41-1.64.28-.6.67-1.12,1.17-1.55.36-.31.76-.56,1.2-.75.32-.14.65-.23.98-.3.21-.04.43-.04.64-.05.23,0,.45,0,.68,0,.43,0,.84-.1,1.22-.31.38-.2.68-.5.89-.88.13-.24.22-.49.31-.75.13-.39.27-.76.4-1.15.05-.15.09-.3.14-.46.03-.1,0-.19-.06-.26-.07-.08-.14-.16-.21-.23-.08-.09-.07-.24.02-.32.09-.08.22-.15.33-.04.07.07.14.14.2.21.08.1.18.14.31.14.36,0,.72-.01,1.08,0,.38.02.76.05,1.14.09.4.05.8.11,1.2.19.36.07.71.17,1.06.26.15.04.26.13.28.31.07.46.07.92-.08,1.37-.05.15-.13.27-.24.38-.15.15-.33.19-.53.15-.05-.01-.1-.02-.15-.03-.06,0-.11,0-.14.07-.03.06-.03.12.02.16.05.05.1.1.15.15.03.03.04.08.06.11-.04.01-.08.04-.13.04-.25,0-.51,0-.76,0-.15,0-.31.01-.45.07-.33.14-.51.38-.52.73-.02.6-.02,1.21-.02,1.81,0,.7-.16,1.36-.45,1.99-.21.44-.48.83-.8,1.2-.26.29-.51.58-.75.88-.28.36-.48.76-.58,1.21-.06.27-.07.54-.05.82.02.35.14.68.29.99.1.21.05.19-.11.19-.27.01-.46-.13-.6-.33-.19-.27-.36-.54-.54-.81-.16-.24-.31-.49-.5-.7-.33-.38-.76-.57-1.27-.56-.09,0-.1,0-.1-.1,0-.3-.03-.59-.13-.87-.22-.63-.63-1.09-1.23-1.38-.25-.12-.5-.2-.77-.23-.06,0-.12,0-.18-.01-.1,0-.16.03-.22.11-.08.12-.02.28.12.31.05,0,.1.01.14.01.85.07,1.42.52,1.73,1.3.09.23.11.47.11.71,0,.29,0,.58.01.87.03.48.4,1,.84,1.13.11.03.22.05.32.08.17.04.29.13.36.29.01.03.03.06.03.09.01.08,0,.1-.08.1-.36,0-.72,0-1.07,0h0ZM11.69,2.23c-.13,0-.28.05-.41.13-.07.04-.08.09-.05.18.02.08.07.07.13.07.04,0,.09,0,.13-.03.14-.09.29-.08.43,0,.05.02.09.05.14.08.07.04.15,0,.2-.06.04-.05.02-.13-.04-.18-.14-.12-.31-.19-.53-.19Zm.25,5.59c-.02-.16-.02-.34-.12-.49-.03-.04-.05-.07-.08-.11,0,.05-.02.09-.01.14.01.38,0,.75-.1,1.12,0,.04-.02.08-.02.12,0,0,0,.02.02.03,0,0,.02,0,.03-.01.04-.05.1-.09.13-.15.09-.2.15-.42.16-.65Zm-8.07-.52s.01.03.02.05c.02,0,.03-.02.05-.03.07-.07.14-.14.21-.2.27-.22.56-.4.89-.53.03-.01.06-.04.09-.06,0,0,0-.02,0-.03,0,0-.01,0-.02,0-.15.02-.3.03-.44.08-.33.12-.59.34-.77.64-.01.02-.02.05-.04.08Zm7.49,1c0-.09-.02-.19-.03-.3,0-.02-.02-.03-.03-.05-.02.01-.04.02-.05.03-.01.03-.02.06-.02.09-.02.12-.04.23-.06.35-.05.22-.11.44-.16.65,0,.03,0,.06,0,.08.02-.02.05-.03.07-.05,0,0,0,0,0,0,.18-.23.25-.5.26-.8Zm-5.35,3.6c0-.13-.03-.24-.1-.38-.11-.23-.29-.38-.52-.49-.03-.01-.06,0-.09,0,.01.02.02.05.04.07.27.21.43.51.58.81.02.04.05.07.07.1,0-.04.01-.08.02-.12ZM14.67,2.93s.01.06.04.08c.07.08.14.15.22.22.07.06.11.05.18-.01.09-.08.11-.14.05-.21-.07-.09-.15-.17-.24-.24-.03-.02-.1-.02-.14,0-.05.03-.1.07-.1.16ZM5.87,12.58c0-.22-.08-.39-.23-.53-.02-.02-.06-.03-.09-.05,0,.03,0,.07,0,.1.07.2.11.41.12.62,0,.05.02.1.04.15,0,.01.02.03.03.04,0,0,.02-.02.03-.03.06-.1.12-.2.1-.3Zm-2.12-4.47s0,.03,0,.05c.02,0,.04,0,.05-.02.05-.05.1-.11.15-.16.15-.17.31-.34.46-.52.01-.01.03-.03.03-.04,0-.01-.01-.04-.02-.04-.05,0-.12,0-.16.02-.09.06-.18.14-.26.22-.13.14-.22.3-.26.49Zm7.86.97c-.02-.05-.03-.08-.04-.11-.03.03-.07.05-.08.08-.11.26-.21.51-.31.77,0,.02,0,.04-.01.07.02,0,.05,0,.07-.02.13-.06.21-.19.26-.31.06-.16.08-.33.12-.48Zm-8.6-.72s.02.06.03.09c.03-.03.05-.06.08-.09,0,0,0-.01,0-.02.08-.15.16-.31.25-.46.06-.1.13-.18.2-.28.01-.01.01-.04.02-.05-.02,0-.04,0-.06,0-.06.03-.12.05-.16.09-.22.18-.34.42-.36.72Zm6.67,2.49c0,.05,0,.09,0,.13,0,.02.02.04.03.06.01-.02.04-.03.04-.05.06-.15.12-.29.18-.44.05-.13.11-.26.17-.39,0-.02,0-.04,0-.06-.02,0-.04.01-.07.02,0,0-.02.01-.02.02-.22.19-.33.44-.34.72Zm1.18-1.16s0-.03-.01-.04c-.01,0-.03,0-.04.02-.04.04-.08.09-.11.13-.04.07-.08.14-.12.21-.08.15-.16.3-.24.45,0,.02,0,.04,0,.06.02,0,.04,0,.06-.02.28-.2.41-.48.46-.82Zm-6.08,1.43s0,0,0,.01c-.01,0-.03,0-.04,0-.02,0-.04.02-.06.03.02.02.03.03.05.05.09.07.19.13.28.21.12.11.23.23.35.34.01.01.03.02.05.03,0-.02,0-.04,0-.06-.06-.23-.2-.4-.4-.52-.07-.04-.15-.06-.23-.1ZM10.08,1.7c0-.11-.1-.2-.21-.18-.07.01-.1.06-.06.12.03.05.08.1.13.13.07.05.14,0,.14-.07Z"/><path class="cls-1" d="m2.86,5.98c-.3.02-.6.04-.9.05-.03,0-.06,0-.09,0,.02-.03.04-.06.06-.08.06-.05.11-.1.17-.13.08-.04.16-.07.24-.09.26-.05.5-.12.75-.22.2-.08.4-.17.58-.3.63-.45.94-1.06.85-1.84-.02-.16-.08-.32-.13-.48-.02-.07-.02-.11.02-.17.11-.14.22-.29.38-.38.17-.1.34-.15.53-.11.13.03.27.04.4.06.08.01.09.04.04.1-.4.4-.5.91-.55,1.44-.04.35-.04.71-.14,1.05-.1.37-.34.63-.66.83-.33.21-.7.27-1.08.29-.16,0-.31,0-.47,0,0,0,0,0,0-.01Zm2.25-3.32c.1,0,.18-.07.18-.16,0-.07-.09-.15-.17-.15-.1,0-.17.07-.17.16,0,.08.08.15.17.15Z"/><path class="cls-1" d="m10.24,13.46c0-.29.1-.55.23-.8.09-.16.17-.32.27-.48.05-.07.12-.13.19-.19.01-.01.03-.01.05-.02,0,.02.01.04,0,.06-.05.18-.1.36-.15.54-.14.53-.18,1.05.03,1.57.07.16.16.31.24.46.03.05.07.11.09.16.04.08.02.11-.07.12-.17.02-.32-.03-.44-.15-.23-.23-.36-.52-.41-.83-.02-.14-.03-.28-.05-.42Z"/><path class="cls-1" d="m4.2,3.5c0,.6-.22,1.03-.66,1.37-.25.18-.52.32-.8.43-.02,0-.03.01-.05.02-.03,0-.05,0-.08,0,0-.02.01-.05.03-.07.36-.4.64-.86.96-1.3.12-.16.23-.34.34-.51.05-.07.11-.14.17-.21.05-.05.07-.04.07.03.01.1.02.19.02.25Z"/><path class="cls-2" d="m11.69,2.23c.22,0,.38.07.53.19.06.05.07.12.04.18-.05.07-.13.1-.2.06-.05-.02-.09-.05-.14-.08-.15-.07-.29-.08-.43,0-.04.02-.08.03-.13.03-.05,0-.11,0-.13-.07-.02-.09-.01-.14.05-.18.13-.09.28-.13.41-.13Z"/><path class="cls-2" d="m11.94,7.82c0,.24-.07.45-.16.65-.02.06-.08.1-.13.15,0,0-.02.01-.03.01,0,0-.02-.02-.02-.03,0-.04.01-.08.02-.12.09-.37.11-.74.1-1.12,0-.05,0-.09.01-.14.03.04.05.07.08.11.1.15.1.33.12.49Z"/><path class="cls-2" d="m3.87,7.3s.02-.06.04-.08c.18-.3.43-.52.77-.64.14-.05.29-.05.44-.08,0,0,.01,0,.02,0,0,0,0,.02,0,.03-.03.02-.06.04-.09.06-.32.13-.62.31-.89.53-.07.06-.14.13-.21.2-.01.01-.03.02-.05.03,0-.02-.01-.03-.02-.05Z"/><path class="cls-2" d="m11.36,8.3c-.02.3-.08.57-.26.8,0,0,0,0,0,0-.02.02-.05.03-.07.05,0-.03-.01-.06,0-.08.05-.22.11-.44.16-.65.03-.11.04-.23.06-.35,0-.03.01-.06.02-.09,0-.02.03-.02.05-.03,0,.02.02.03.03.05.01.1.02.21.03.3Z"/><path class="cls-2" d="m6.01,11.9s-.01.08-.02.12c-.02-.03-.05-.07-.07-.1-.15-.3-.31-.6-.58-.81-.02-.01-.03-.04-.04-.07.03,0,.07-.02.09,0,.23.1.41.26.52.49.07.14.09.25.1.38Z"/><path class="cls-2" d="m14.67,2.93c0-.09.05-.14.1-.16.04-.02.11-.02.14,0,.09.07.17.15.24.24.06.07.04.13-.05.21-.07.06-.11.07-.18.01-.08-.07-.15-.14-.22-.22-.02-.02-.03-.06-.04-.08Z"/><path class="cls-2" d="m5.87,12.58c.02.1-.05.2-.1.3,0,.01-.02.02-.03.03,0-.01-.02-.02-.03-.04-.01-.05-.03-.1-.04-.15,0-.21-.05-.42-.12-.62-.01-.03,0-.07,0-.1.03.01.06.02.09.05.15.14.23.31.23.53Z"/><path class="cls-2" d="m3.75,8.11c.04-.19.13-.35.26-.49.08-.08.16-.16.26-.22.04-.03.11-.02.16-.02,0,0,.02.03.02.04,0,.02-.02.03-.03.04-.15.17-.31.34-.46.52-.05.05-.1.11-.15.16-.01.01-.04.01-.05.02,0-.02,0-.03,0-.05Z"/><path class="cls-2" d="m11.61,9.08c-.04.15-.06.32-.12.48-.05.13-.12.25-.26.31-.02,0-.04.01-.07.02,0-.02,0-.05.01-.07.1-.26.2-.52.31-.77.01-.03.05-.05.08-.08.01.03.02.06.04.11Z"/><path class="cls-2" d="m3.01,8.35c.03-.3.14-.54.36-.72.05-.04.11-.06.16-.09.02,0,.04,0,.06,0,0,.02,0,.04-.02.05-.07.09-.14.18-.2.28-.09.15-.17.31-.25.46,0,0,0,.01,0,.02-.03.03-.05.06-.08.09-.01-.04-.02-.07-.03-.09Z"/><path class="cls-2" d="m9.68,10.85c.01-.28.13-.52.34-.72,0,0,.01-.02.02-.02.02,0,.04-.01.07-.02,0,.02,0,.05,0,.06-.06.13-.11.26-.17.39-.06.15-.12.29-.18.44,0,.02-.03.03-.04.05-.01-.02-.03-.04-.03-.06,0-.04,0-.08,0-.13Z"/><path class="cls-2" d="m10.86,9.69c-.04.33-.18.62-.46.82-.02.01-.04.01-.06.02,0-.02,0-.05,0-.06.08-.15.16-.3.24-.45.04-.07.07-.14.12-.21.03-.05.07-.09.11-.13,0-.01.03-.01.04-.02,0,.01,0,.03.01.04Z"/><path class="cls-2" d="m4.78,11.11c.08.03.16.06.23.1.2.11.35.28.4.52,0,.02,0,.04,0,.06-.02,0-.04-.02-.05-.03-.12-.11-.23-.23-.35-.34-.09-.08-.19-.14-.28-.21-.02-.01-.03-.03-.05-.05.02-.01.04-.02.06-.03.01,0,.03,0,.04,0,0,0,0,0,0-.01Z"/><path class="cls-2" d="m10.08,1.7c0,.08-.07.12-.14.07-.05-.03-.09-.08-.13-.13-.04-.06,0-.11.06-.12.1-.02.21.07.21.18Z"/><path class="cls-2" d="m5.11,2.66c-.09,0-.17-.08-.17-.15,0-.09.08-.16.17-.16.09,0,.17.08.17.15,0,.09-.08.17-.18.16Z"/></svg>